# xmcd
#
# Track frame offsets: 
#        150
#        70300
#        142727
#
# Disc length: 2407 seconds
#
# Revision: 6
# Processed by: cddbd v1.5.2PL0 Copyright (c) Steve Scherf et al.
# Submitted via: ExactAudioCopy v0.99pb5
#
DISCID=22096503
DTITLE=Philip Glass - Satyagraha (3 - 3)
DYEAR=1985
DGENRE=Classical
TTITLE0=Act III - King - Newcastle March (1913) - Part 1
TTITLE1=Act III - King - Newcastle March (1913) - Part 2
TTITLE2=Act III - King - Newcastle March (1913) - Part 3 Evening Song
EXTD=X...U...
EXTT0=
EXTT1=
EXTT2=
PLAYORDER=
